<?xml version="1.0" encoding="UTF-8" standalone="no"?>
<svg
   xmlns:dc="http://purl.org/dc/elements/1.1/"
   xmlns:cc="http://creativecommons.org/ns#"
   xmlns:rdf="http://www.w3.org/1999/02/22-rdf-syntax-ns#"
   xmlns:svg="http://www.w3.org/2000/svg"
   xmlns="http://www.w3.org/2000/svg"
   xmlns:sodipodi="http://sodipodi.sourceforge.net/DTD/sodipodi-0.dtd"
   xmlns:inkscape="http://www.inkscape.org/namespaces/inkscape"
   width="192"
   height="192"
   viewBox="0 0 50.799999 50.799999"
   version="1.1"
   id="svg8"
   inkscape:version="1.0.1 (c497b03c, 2020-09-10)"
   sodipodi:docname="launcher-icon-192x192.svg"
   inkscape:export-filename="/Users/willianantunes/Development/git-personal/rave-of-phonetics/rave_of_phonetics/apps/core/static/core/img/favicon.png"
   inkscape:export-xdpi="96"
   inkscape:export-ydpi="96">
  <defs
     id="defs2" />
  <sodipodi:namedview
     id="base"
     pagecolor="#ffffff"
     bordercolor="#666666"
     borderopacity="1.0"
     inkscape:pageopacity="0.0"
     inkscape:pageshadow="2"
     inkscape:zoom="1.4550082"
     inkscape:cx="98.112087"
     inkscape:cy="140.62949"
     inkscape:document-units="px"
     inkscape:current-layer="layer1"
     inkscape:document-rotation="0"
     showgrid="false"
     units="px"
     inkscape:window-width="1440"
     inkscape:window-height="855"
     inkscape:window-x="0"
     inkscape:window-y="23"
     inkscape:window-maximized="1" />
  <metadata
     id="metadata5">
    <rdf:RDF>
      <cc:Work
         rdf:about="">
        <dc:format>image/svg+xml</dc:format>
        <dc:type
           rdf:resource="http://purl.org/dc/dcmitype/StillImage" />
        <dc:title />
      </cc:Work>
    </rdf:RDF>
  </metadata>
  <g
     inkscape:label="Layer 1"
     inkscape:groupmode="layer"
     id="layer1">
    <rect
       style="fill:#50a49a;fill-rule:evenodd;stroke-width:0.264583;fill-opacity:1"
       id="rect10"
       width="50.799999"
       height="50.799999"
       x="-1.1853027e-07"
       y="-1.1853027e-07" />
    <g
       aria-label="fəˈnɛtɪks"
       id="text18"
       style="font-style:normal;font-weight:normal;font-size:14.2809px;line-height:1.25;font-family:sans-serif;fill:#ffffff;fill-opacity:1;stroke:none;stroke-width:0.357024">
      <path
         d="M 2.7165185,47.30352 V 40.874326 H 1.803043 v -0.976233 h 0.9134755 v -0.78796 q 0,-0.871637 0.1813005,-1.303969 0.1813005,-0.439305 0.5508746,-0.669417 0.3765471,-0.230112 0.9413679,-0.230112 0.439305,0 0.9622872,0.125515 l -0.1534081,1.094776 q -0.3207624,-0.06973 -0.6066593,-0.06973 -0.4602244,0 -0.6624441,0.244059 -0.1952467,0.237085 -0.1952467,0.913475 v 0.683364 h 1.1854263 v 0.976233 H 3.7345905 v 6.429194 z"
         style="font-style:normal;font-variant:normal;font-weight:normal;font-stretch:normal;font-family:'Arial Narrow';-inkscape-font-specification:'Arial Narrow';fill:#ffffff;stroke-width:0.357024"
         id="path61" />
      <path
         d="m 12.74383,43.328856 q 0,1.826951 -0.96926,2.956592 -1.025045,1.199373 -2.8171307,1.199373 -1.6177582,0 -2.475449,-0.969261 -0.8088791,-0.920448 -0.8088791,-2.566099 v -0.711256 h 5.7388578 q 0,-1.387646 -0.808879,-2.126794 -0.7321752,-0.669417 -1.95944,-0.669417 -0.655471,0 -1.4504039,0.258005 -0.8437446,0.278923 -1.2969958,0.683363 h -0.069731 v -1.429485 q 1.5550004,-0.655471 2.8031845,-0.655471 1.9454932,0 3.0263232,1.045965 1.087803,1.045964 1.087803,2.984485 z m -1.331861,0.913475 H 6.9491877 q 0.013946,2.16166 2.0779825,2.16166 0.9971528,0 1.6456508,-0.58574 0.648498,-0.58574 0.739148,-1.57592 z"
         style="font-style:normal;font-variant:normal;font-weight:normal;font-stretch:normal;font-family:'Arial Narrow';-inkscape-font-specification:'Arial Narrow';fill:#ffffff;stroke-width:0.357024"
         id="path63" />
      <path
         d="m 16.174593,39.39603 h -0.718229 v -2.315068 h 0.718229 z"
         style="font-style:normal;font-variant:normal;font-weight:normal;font-stretch:normal;font-family:'Arial Narrow';-inkscape-font-specification:'Arial Narrow';fill:#ffffff;stroke-width:0.357024"
         id="path65" />
      <path
         d="m 18.963831,47.30352 v -7.405427 h 0.927421 v 1.052937 q 0.334709,-0.613632 0.815853,-0.913476 0.488116,-0.306816 1.115695,-0.306816 0.488117,0 0.899529,0.195247 0.418386,0.188274 0.669417,0.502063 0.258005,0.306816 0.383521,0.801906 0.125515,0.49509 0.125515,1.520135 V 47.30352 H 22.868764 V 42.7989 q 0,-0.815852 -0.139462,-1.192399 -0.139462,-0.376547 -0.439305,-0.578767 -0.29287,-0.209193 -0.683363,-0.209193 -0.739148,0 -1.178453,0.550875 -0.439305,0.550874 -0.439305,1.889709 v 4.044395 z"
         style="font-style:normal;font-variant:normal;font-weight:normal;font-stretch:normal;font-family:'Arial Narrow';-inkscape-font-specification:'Arial Narrow';fill:#ffffff;stroke-width:0.357024"
         id="path67" />
      <path
         d="m 30.936638,45.218565 q -0.40444,2.252309 -2.935674,2.252309 -1.164507,0 -1.903655,-0.522982 -0.850718,-0.599686 -0.850718,-1.715381 0,-1.262131 1.115696,-1.861817 -0.87861,-0.536928 -0.87861,-1.443431 0,-1.025045 0.774013,-1.631704 0.711256,-0.564821 1.75722,-0.564821 2.133768,0 2.691615,2.084956 l -1.192399,0.195247 q -0.425359,-1.248185 -1.485269,-1.248185 -0.529956,0 -0.871637,0.299844 -0.341682,0.29287 -0.341682,0.815852 0,0.362601 0.230112,0.662444 0.230112,0.299843 0.578767,0.369574 0.29287,0.05579 1.08083,0.06276 v 0.983206 q -0.223139,-0.007 -0.285897,-0.007 -0.711256,0 -0.906502,0.03487 -0.453252,0.09065 -0.746122,0.446278 -0.264977,0.320762 -0.264977,0.753094 0,0.578767 0.460224,0.941368 0.418386,0.334709 1.018072,0.334709 0.683363,0 1.164507,-0.418386 0.460224,-0.397467 0.613632,-1.073857 z"
         style="font-style:normal;font-variant:normal;font-weight:normal;font-stretch:normal;font-family:'Arial Narrow';-inkscape-font-specification:'Arial Narrow';fill:#ffffff;stroke-width:0.357024"
         id="path69" />
      <path
         d="m 34.339507,46.180852 0.139462,1.108722 q -0.425359,0.11157 -0.767041,0.11157 -0.536928,0 -0.864664,-0.209193 -0.327735,-0.216166 -0.453251,-0.58574 -0.118543,-0.369574 -0.118543,-1.471324 v -4.260561 h -0.753094 v -0.976233 h 0.753094 v -1.833925 l 1.025046,-0.753094 v 2.587019 h 1.038991 v 0.976233 h -1.038991 v 4.330292 q 0,0.599687 0.09065,0.774014 0.132489,0.251031 0.49509,0.251031 0.174327,0 0.453251,-0.04881 z"
         style="font-style:normal;font-variant:normal;font-weight:normal;font-stretch:normal;font-family:'Arial Narrow';-inkscape-font-specification:'Arial Narrow';fill:#ffffff;stroke-width:0.357024"
         id="path71" />
      <path
         d="m 36.766146,47.30352 h -1.255157 v -7.405427 h 1.255157 z"
         style="font-style:normal;font-variant:normal;font-weight:normal;font-stretch:normal;font-family:'Arial Narrow';-inkscape-font-specification:'Arial Narrow';fill:#ffffff;stroke-width:0.357024"
         id="path73" />
      <path
         d="M 38.516391,47.30352 V 37.080962 h 1.025045 v 5.829508 l 2.440583,-3.012377 h 1.331862 l -2.322041,2.747399 2.552153,4.658028 h -1.262131 l -2.015224,-3.786391 -0.725202,0.850718 v 2.935673 z"
         style="font-style:normal;font-variant:normal;font-weight:normal;font-stretch:normal;font-family:'Arial Narrow';-inkscape-font-specification:'Arial Narrow';fill:#ffffff;stroke-width:0.357024"
         id="path75" />
      <path
         d="m 43.955408,45.093049 1.018072,-0.195247 q 0.09065,0.780987 0.49509,1.164507 0.404439,0.376547 1.073856,0.376547 0.669417,0 1.032018,-0.327735 0.369575,-0.334709 0.369575,-0.843745 0,-0.439305 -0.31379,-0.683363 -0.216166,-0.167354 -1.045964,-0.418386 -1.199373,-0.369574 -1.603812,-0.627578 -0.40444,-0.258005 -0.627579,-0.690337 -0.223139,-0.432332 -0.223139,-0.983206 0,-0.948341 0.60666,-1.541055 0.606659,-0.592713 1.680516,-0.592713 0.67639,0 1.185426,0.244059 0.516009,0.244058 0.78796,0.655471 0.27195,0.411412 0.376547,1.178453 l -1.004126,0.167354 q -0.139462,-1.213319 -1.317915,-1.213319 -0.669417,0 -0.997153,0.271951 -0.327735,0.264978 -0.327735,0.683364 0,0.411412 0.313789,0.648497 0.188274,0.139462 1.115695,0.446279 1.276077,0.411412 1.652624,0.655471 0.376547,0.237085 0.58574,0.655471 0.209193,0.411412 0.209193,0.983206 0,1.059911 -0.67639,1.715382 -0.669417,0.655471 -1.833924,0.655471 -2.182579,0 -2.531234,-2.384799 z"
         style="font-style:normal;font-variant:normal;font-weight:normal;font-stretch:normal;font-family:'Arial Narrow';-inkscape-font-specification:'Arial Narrow';fill:#ffffff;stroke-width:0.357024"
         id="path77" />
    </g>
    <g
       aria-label="RP"
       id="text931"
       style="font-style:normal;font-weight:normal;font-size:44.179px;line-height:1.25;font-family:sans-serif;fill:#ffffff;fill-opacity:1;stroke:none;stroke-width:1.10448">
      <path
         d="m 27.169582,31.925229 q 0,1.855518 -3.09253,1.855518 -3.445962,0 -5.389838,-2.871635 -0.839401,-1.237012 -1.104475,-2.385666 -0.220895,-1.148654 -0.706864,-5.831628 -0.265074,-2.827456 -1.811339,-3.97611 -1.546265,-1.192833 -5.036406,-1.281191 v 13.916385 q 0,0.88358 1.413728,1.104475 0.397611,0.04418 2.032234,0.08836 0.574327,0 0.574327,0.353432 0,0.397611 -0.751043,0.397611 h -0.530148 q -0.397611,-0.04418 -3.8435734,-0.04418 -0.662685,0 -2.253129,0.04418 -1.5462651,0 -2.0322341,0 h -1.722981 q -0.971938,0 -0.971938,-0.397611 0,-0.309253 1.281191,-0.353432 2.076413,-0.04418 2.253129,-0.530148 0.176716,-0.220895 0.176716,-1.722981 V 5.9037974 q 0,-1.7671601 -0.397611,-2.1205921 -0.353432,-0.353432 -2.253129,-0.397611 -1.104475,0 -1.104475,-0.397611 0,-0.44179 0.706864,-0.44179 0.132537,0 0.397611,0.044179 l 5.8758071,0.132537 q 0.88358,0 2.4740244,-0.044179 1.76716,-0.088358 2.474024,-0.088358 4.108647,0 6.494313,1.8555181 2.429845,1.811339 2.429845,4.948048 0,3.0925306 -2.474024,5.1247646 -2.474024,1.988055 -6.715208,2.341487 -0.397611,0.04418 -0.44179,0.132537 0,0.176716 0.44179,0.176716 4.638795,0.795222 6.361776,3.269246 1.76716,2.429845 2.341487,8.8358 0.353432,3.622678 2.474024,3.622678 0.662685,0 0.662685,-0.265074 0,-0.04418 -0.04418,-0.08836 -0.220895,-0.485969 -0.220895,-0.795222 0,-0.927759 0.971938,-0.927759 1.060296,0 1.060296,1.104475 z M 18.024529,9.7915495 q 0,-6.3175972 -5.478196,-6.3175972 -1.457907,0 -1.988055,0.397611 -0.530148,0.397611 -0.530148,1.4137281 V 16.506758 q 4.241184,0.04418 6.096702,-1.546265 1.899697,-1.590444 1.899697,-5.1689435 z"
         style="font-style:normal;font-variant:normal;font-weight:normal;font-stretch:normal;font-family:'Bodoni 72';-inkscape-font-specification:'Bodoni 72, ';fill:#ffffff;stroke-width:1.10448"
         id="path51" />
      <path
         d="m 48.900818,9.9240865 q 0,4.2853635 -3.666857,6.6710295 -2.297308,1.502086 -5.831629,1.502086 -1.502086,0 -3.401783,-0.309253 v 12.546836 q 0,1.016117 0.08836,1.281191 0.220895,0.618506 0.971938,0.751043 1.281191,0.176716 2.474024,0.176716 0.485969,0 0.485969,0.309253 0,0.44179 -0.618506,0.44179 -0.265074,0 -0.44179,-0.04418 -2.429845,0.04418 -9.145053,0.04418 h -0.574327 q -1.32537,0 -1.32537,-0.44179 0,-0.309253 0.927759,-0.309253 2.076413,0 2.385666,-0.397611 0.353432,-0.176716 0.397611,-0.88358 V 5.1969334 q 0,-1.3695491 -0.751043,-1.6788021 -0.44179,-0.176716 -1.546265,-0.176716 h -0.44179 q -0.132537,0.044179 -0.309253,0.044179 -0.662685,0 -0.662685,-0.397611 0,-0.44179 1.237012,-0.44179 h 9.71938 q 5.036407,0 7.377894,1.76716 2.65074,1.9880551 2.65074,5.6107332 z m -4.638795,0.088358 q 0,-6.6268497 -5.566555,-6.6268497 -1.855518,0 -2.429845,0.618506 -0.265074,0.265074 -0.265074,1.3695491 V 17.125264 q 0.353432,0.04418 0.795222,0.04418 2.915814,0 4.948048,-1.281191 2.518204,-1.590444 2.518204,-5.875808 z"
         style="font-style:normal;font-variant:normal;font-weight:normal;font-stretch:normal;font-family:'Bodoni 72';-inkscape-font-specification:'Bodoni 72, ';fill:#ffffff;stroke-width:1.10448"
         id="path53" />
    </g>
    <g
       aria-label="of"
       id="text935"
       style="font-style:normal;font-weight:normal;font-size:8.76958px;line-height:1.25;font-family:sans-serif;fill:#f9f9f9;fill-opacity:1;stroke:none;stroke-width:0.219239">
      <path
         d="m 26.965848,26.341246 q 0,0.85065 -0.517405,1.429442 -0.517406,0.570022 -1.289129,0.570022 -0.798031,0 -1.332976,-0.570022 -0.534944,-0.578792 -0.534944,-1.429442 0,-0.876958 0.517405,-1.45575 0.526175,-0.578792 1.306668,-0.578792 0.789262,0 1.315437,0.587562 0.534944,0.578792 0.534944,1.44698 z m -0.798032,-0.0088 q 0,-0.964654 -0.298166,-1.499598 -0.219239,-0.394632 -0.736644,-0.394632 -0.491097,0 -0.771723,0.508636 -0.271857,0.499866 -0.271857,1.394363 0,0.885728 0.289396,1.385594 0.298166,0.491096 0.82434,0.491096 0.403401,0 0.596332,-0.306935 0.368322,-0.578792 0.368322,-1.578524 z"
         style="font-style:normal;font-variant:normal;font-weight:normal;font-stretch:normal;font-family:'Bodoni 72';-inkscape-font-specification:'Bodoni 72, ';fill:#f9f9f9;stroke-width:0.219239"
         id="path56" />
      <path
         d="m 30.398864,22.71941 q 0,0.184161 -0.114004,0.306935 -0.105235,0.114005 -0.280627,0.114005 -0.166622,0 -0.280626,-0.105235 -0.114005,-0.105235 -0.114005,-0.263088 0,-0.131543 0.114005,-0.306935 0.02631,-0.04385 0.02631,-0.07893 0,-0.201701 -0.289396,-0.201701 -0.491096,0 -0.648949,0.63141 -0.07893,0.333244 -0.07893,1.166354 v 0.42971 h 0.578792 q 0.175392,0 0.175392,0.07893 0,0.07893 -0.228009,0.07893 h -0.526175 v 3.428906 q 0,0.122774 0.245548,0.122774 0.377092,-0.0088 0.412171,0.03508 0.0088,0.0088 0.0088,0.03508 0,0.06139 -0.105235,0.06139 -0.05262,0 -0.0877,-0.0088 l -0.719106,-0.0088 -0.955884,0.01754 q -0.157853,0 -0.157853,-0.06139 0,-0.07016 0.122774,-0.07016 0.438479,0 0.482327,-0.05262 0.01754,-0.01754 0.01754,-0.05262 l 0.0088,-0.114004 v -3.332441 q -0.324474,0 -0.377092,-0.0088 -0.05262,-0.0088 -0.05262,-0.07016 0,-0.07893 0.157852,-0.07893 h 0.280627 q 0.03508,-1.113737 0.298165,-1.604833 0.403401,-0.754184 1.210202,-0.754184 0.385862,0 0.63141,0.184161 0.245548,0.184161 0.245548,0.482327 z"
         style="font-style:normal;font-variant:normal;font-weight:normal;font-stretch:normal;font-family:'Bodoni 72';-inkscape-font-specification:'Bodoni 72, ';fill:#f9f9f9;stroke-width:0.219239"
         id="path58" />
    </g>
  </g>
</svg>
