<?xml version="1.0" encoding="UTF-8" standalone="no"?>
<!-- Created with Inkscape (http://www.inkscape.org/) -->

<svg
   xmlns:dc="http://purl.org/dc/elements/1.1/"
   xmlns:cc="http://creativecommons.org/ns#"
   xmlns:rdf="http://www.w3.org/1999/02/22-rdf-syntax-ns#"
   xmlns:svg="http://www.w3.org/2000/svg"
   xmlns="http://www.w3.org/2000/svg"
   xmlns:sodipodi="http://sodipodi.sourceforge.net/DTD/sodipodi-0.dtd"
   xmlns:inkscape="http://www.inkscape.org/namespaces/inkscape"
   width="1200"
   height="630"
   viewBox="0 0 317.49999 166.6875"
   version="1.1"
   id="svg8"
   inkscape:export-filename="/home/willianantunes/Pictures/og-image-2021-02-25-i-love-your-accent.png"
   inkscape:export-xdpi="96"
   inkscape:export-ydpi="96"
   inkscape:version="0.92.5 (2060ec1f9f, 2020-04-08)"
   sodipodi:docname="og-image-blogpost-placeholder-2.svg"
   enable-background="new">
  <defs
     id="defs2">
    <clipPath
       id="clipPath4670"
       clipPathUnits="userSpaceOnUse">
      <path
         inkscape:connector-curvature="0"
         id="path4672"
         d="M 67.73333,-84.666666 C 30.325281,-84.666666 0,-54.341389 0,-16.933337 0,20.474715 30.325339,50.732755 67.73333,50.799996 h 40.88122 c 14.87601,2.9e-5 26.85216,-11.976099 26.85211,-26.852109 v -40.881224 c -0.0673,-37.407991 -30.32528,-67.733328 -67.73333,-67.733329 z"
         style="fill:#ff0000;stroke:none;stroke-width:0.24394174" />
    </clipPath>
    <clipPath
       id="clipPath4670-0"
       clipPathUnits="userSpaceOnUse">
      <path
         inkscape:connector-curvature="0"
         id="path4672-3"
         d="M 67.73333,-84.666666 C 30.325281,-84.666666 0,-54.341389 0,-16.933337 0,20.474715 30.325339,50.732755 67.73333,50.799996 h 40.88122 c 14.87601,2.9e-5 26.85216,-11.976099 26.85211,-26.852109 v -40.881224 c -0.0673,-37.407991 -30.32528,-67.733328 -67.73333,-67.733329 z"
         style="fill:#ff0000;stroke:none;stroke-width:0.24394174" />
    </clipPath>
    <mask
       maskUnits="userSpaceOnUse"
       id="mask2353">
      <rect
         y="15.14869"
         x="-69.15416"
         height="95.421951"
         width="181.7561"
         id="rect2355"
         style="display:inline;opacity:1;vector-effect:none;fill:#e6e6e6;fill-opacity:1;stroke:none;stroke-width:0.13028105;stroke-linecap:butt;stroke-linejoin:miter;stroke-miterlimit:4;stroke-dasharray:none;stroke-dashoffset:0;stroke-opacity:1" />
    </mask>
    <clipPath
       clipPathUnits="userSpaceOnUse"
       id="clipPath7530">
      <path
         inkscape:connector-curvature="0"
         d="m 31.110489,238.19812 c -2.927596,-0.0791 -6.062538,1.82429 -7.516461,5.21678 a 3.3276527,3.3276527 0 0 0 -0.01217,0.0295 l -12.643069,30.2792 0.247999,-0.48214 c -3.9051169,6.24817 -4.6551077,14.22339 -1.9562788,21.21399 2.0546028,6.09387 5.8124788,11.06764 10.7526678,14.05132 4.967777,3.00034 11.142325,3.87732 17.3118,1.94935 l 16.22439,-4.63579 a 3.3276527,3.3276527 0 0 0 0.04333,-0.0122 l 3.326387,-0.99723 -0.149151,0.0399 c 4.623951,-1.15599 7.327601,-5.66806 6.052717,-10.13005 a 3.3276527,3.3276527 0 0 0 -0.109265,-0.32258 c -0.102249,-0.25562 -0.276368,-0.49224 -0.405816,-0.74229 3.381158,-1.78055 5.254821,-5.46958 4.174464,-9.25076 a 3.3276527,3.3276527 0 0 0 -0.109254,-0.32085 c -0.169008,-0.42251 -0.418063,-0.85689 -0.659038,-1.28859 3.508322,-1.70441 5.476661,-5.42323 4.438071,-9.25943 -0.07033,-0.31636 -0.214815,-0.59705 -0.322588,-0.89664 l 16.028426,-4.75892 -0.14048,0.0382 c 4.623959,-1.15598 7.32759,-5.66979 6.052719,-10.13178 -0.625938,-2.19075 -2.068618,-3.76646 -3.796379,-4.85432 -1.72779,-1.08787 -3.93409,-1.76856 -6.305926,-1.09088 a 3.3276527,3.3276527 0 0 0 -0.02424,0.007 l -33.938568,9.98264 -12.344757,3.6299 1.628505,-21.14462 -0.01217,0.11099 c 0.192935,-1.73671 -0.553857,-3.56022 -1.732565,-4.63752 -1.178719,-1.07732 -2.639568,-1.55253 -4.103365,-1.59209 z m -0.905304,7.14012 -1.878245,24.42073 a 3.3276527,3.3276527 0 0 0 4.255968,3.44779 l 16.968415,-4.99132 33.914273,-9.97571 h 0.0019 c -0.04102,0.0121 0.41229,-0.002 0.929584,0.32432 0.51815,0.32625 0.905651,0.91261 0.94519,1.05099 0.0561,0.19625 -0.56801,1.67208 -1.267772,1.84703 a 3.3276527,3.3276527 0 0 0 -0.140475,0.0382 l -21.295532,6.32153 a 3.3276527,3.3276527 0 0 0 0.29483,6.45334 c 0.325144,0.065 0.653016,0.39128 0.718005,0.71627 a 3.3276527,3.3276527 0 0 0 0.06242,0.26188 c 0.05603,0.19624 -0.568013,1.67208 -1.26778,1.84703 a 3.3276527,3.3276527 0 0 0 -0.244536,0.0711 l -3.992359,1.33194 a 3.3276527,3.3276527 0 0 0 0.504682,6.43773 c 0.411917,0.0686 0.92682,0.59545 1.307658,1.38224 -0.008,0.29843 -0.568759,1.59033 -1.234818,1.75685 l -3.99237,0.99895 a 3.3276527,3.3276527 0 0 0 0.260147,6.51057 c 0.706943,0.11782 1.020791,0.44541 1.307666,1.04578 -0.0053,0.29542 -0.567648,1.59352 -1.234826,1.76032 a 3.3276527,3.3276527 0 0 0 -0.149143,0.0416 l -3.307313,0.9903 -16.283361,4.65312 a 3.3276527,3.3276527 0 0 0 -0.07805,0.0226 c -4.477941,1.39935 -8.451474,0.78004 -11.885174,-1.2938 -3.433698,-2.07382 -6.30908,-5.71706 -7.922286,-10.55669 a 3.3276527,3.3276527 0 0 0 -0.0555,-0.15436 c -1.934693,-4.97487 -1.355537,-10.94629 1.38397,-15.32949 a 3.3276527,3.3276527 0 0 0 0.249739,-0.48214 l 12.630869,-30.2497 c 0.177202,-0.41348 0.333073,-0.52232 0.494276,-0.69893 z M 108.17228,198.4766 c 0,5.65645 -4.32554,9.98196 -9.981981,9.98196 -5.656448,0 -9.981949,-4.32551 -9.981949,-9.98196 0,-5.65644 4.325501,-9.98197 9.981949,-9.98197 5.656441,0 9.981981,4.32553 9.981981,9.98197 m -56.564454,-9.98197 c 0,5.65646 -4.32553,9.98197 -9.981978,9.98197 -5.656445,0 -9.981978,-4.32551 -9.981978,-9.98197 0,-5.65643 4.325533,-9.98196 9.981978,-9.98196 5.656448,0 9.981978,4.32553 9.981978,9.98196 m 19.700311,-61.49301 c -7.857188,-0.29527 -15.894023,0.56719 -23.890001,2.71245 a 3.3276527,3.3276527 0 0 0 -0.0053,0.002 c -34.712332,9.37233 -59.023504,40.98214 -59.023504,77.0793 0,15.98079 4.8466776,31.91626 13.890026,45.13349 a 3.3276527,3.3276527 0 1 0 5.4925371,-3.75825 c -8.2586741,-12.07046 -12.7280122,-26.7447 -12.7280122,-41.37527 0,-33.11111 22.2692141,-62.05852 54.1032861,-70.65372 h -0.0053 c 39.206874,-10.51892 79.240221,12.35951 89.755341,51.55211 10.51891,39.20686 -12.35783,79.23854 -51.550415,89.75362 a 3.3276527,3.3276527 0 1 0 1.723898,6.42733 c 42.659457,-11.44547 67.695187,-55.25984 56.253777,-97.90507 -9.29926,-34.66084 -39.96869,-57.68848 -74.016534,-58.968 z m 33.657603,42.1973 c -4.81661,-0.17514 -9.63528,0.17443 -14.3687,1.05099 a 3.3276527,3.3276527 0 1 0 1.212281,6.54353 c 8.500669,-1.57421 17.325479,-1.26128 25.842829,0.94692 a 3.3276527,3.3276527 0 1 0 1.67015,-6.44119 c -4.72512,-1.22504 -9.53995,-1.9251 -14.35656,-2.10025 z M 33.509027,154.10703 c -4.471149,0.28088 -8.712396,1.80838 -12.410662,4.36871 a 3.3276527,3.3276527 0 1 0 3.78772,5.46999 c 3.72003,-2.57541 7.806398,-3.66 12.33435,-3.094 a 3.3276527,3.3276527 0 0 0 0.412761,0.026 c 4.491902,0 8.603167,1.66422 11.621558,4.68262 a 3.3276683,3.3276683 0 1 0 4.705162,-4.7069 c -4.25327,-4.25328 -10.04235,-6.55934 -16.12207,-6.61117 -1.458445,-0.16966 -2.9068,-0.22461 -4.328819,-0.13527 z m 20.884462,76.33876 c -4.356087,-0.13478 -7.895958,-0.0472 -10.704105,0.77177 a 3.3276527,3.3276527 0 1 0 1.862635,6.38916 c 1.18464,-0.34552 4.589703,-0.63332 8.635092,-0.50815 4.045397,0.12517 8.878647,0.56169 13.680173,1.2331 4.801523,0.67139 9.583891,1.57902 13.524084,2.61878 3.940191,1.03978 7.118821,2.36178 8.187632,3.13909 a 3.3276527,3.3276527 0 1 0 3.914331,-5.38154 c -2.591242,-1.88453 -6.109161,-3.05842 -10.404081,-4.1918 -4.294923,-1.13339 -9.286978,-2.0755 -14.301052,-2.77662 -5.014066,-0.70112 -10.038612,-1.15901 -14.394709,-1.29379 z"
         style="color:#000000;font-style:normal;font-variant:normal;font-weight:normal;font-stretch:normal;font-size:medium;line-height:normal;font-family:sans-serif;font-variant-ligatures:normal;font-variant-position:normal;font-variant-caps:normal;font-variant-numeric:normal;font-variant-alternates:normal;font-feature-settings:normal;text-indent:0;text-align:start;text-decoration:none;text-decoration-line:none;text-decoration-style:solid;text-decoration-color:#000000;letter-spacing:normal;word-spacing:normal;text-transform:none;writing-mode:lr-tb;direction:ltr;text-orientation:mixed;dominant-baseline:auto;baseline-shift:baseline;text-anchor:start;white-space:normal;shape-padding:0;clip-rule:nonzero;display:inline;overflow:visible;visibility:visible;opacity:1;isolation:auto;mix-blend-mode:normal;color-interpolation:sRGB;color-interpolation-filters:linearRGB;solid-color:#000000;solid-opacity:1;vector-effect:none;fill:#ffffff;fill-opacity:1;fill-rule:nonzero;stroke:none;stroke-width:6.6546402;stroke-linecap:round;stroke-linejoin:round;stroke-miterlimit:4;stroke-dasharray:none;stroke-dashoffset:0;stroke-opacity:1;color-rendering:auto;image-rendering:auto;shape-rendering:auto;text-rendering:auto;enable-background:accumulate"
         id="path7532" />
    </clipPath>
  </defs>
  <sodipodi:namedview
     id="base"
     pagecolor="#ffffff"
     bordercolor="#666666"
     borderopacity="1.0"
     inkscape:pageopacity="0.0"
     inkscape:pageshadow="2"
     inkscape:zoom="0.70710678"
     inkscape:cx="709.66224"
     inkscape:cy="429.34668"
     inkscape:document-units="mm"
     inkscape:current-layer="g4997"
     showgrid="false"
     units="px"
     inkscape:snap-intersection-paths="false"
     inkscape:object-paths="true"
     inkscape:snap-smooth-nodes="false"
     inkscape:snap-midpoints="false"
     showguides="true"
     inkscape:guide-bbox="true"
     inkscape:object-nodes="false"
     inkscape:snap-others="false"
     inkscape:window-width="1848"
     inkscape:window-height="920"
     inkscape:window-x="72"
     inkscape:window-y="27"
     inkscape:window-maximized="1">
    <sodipodi:guide
       position="25,163.37518"
       orientation="1,0"
       id="guide2138"
       inkscape:locked="false" />
    <sodipodi:guide
       position="86.254164,141.6875"
       orientation="0,1"
       id="guide2140"
       inkscape:locked="false" />
    <sodipodi:guide
       position="159.80833,25.000001"
       orientation="0,1"
       id="guide2142"
       inkscape:locked="false" />
    <sodipodi:guide
       position="292.49999,153.45833"
       orientation="1,0"
       id="guide2144"
       inkscape:locked="false" />
  </sodipodi:namedview>
  <metadata
     id="metadata5">
    <rdf:RDF>
      <cc:Work
         rdf:about="">
        <dc:format>image/svg+xml</dc:format>
        <dc:type
           rdf:resource="http://purl.org/dc/dcmitype/StillImage" />
        <dc:title />
      </cc:Work>
    </rdf:RDF>
  </metadata>
  <g
     inkscape:label="Background White"
     inkscape:groupmode="layer"
     id="g869"
     transform="translate(0,-130.31247)"
     style="display:inline;opacity:1"
     sodipodi:insensitive="true">
    <rect
       style="opacity:1;vector-effect:none;fill:#ffffff;fill-opacity:1;stroke:none;stroke-width:0.22758098;stroke-linecap:butt;stroke-linejoin:miter;stroke-miterlimit:4;stroke-dasharray:none;stroke-dashoffset:0;stroke-opacity:1"
       id="rect867"
       width="317.5"
       height="166.6875"
       x="-3.907985e-14"
       y="130.31247" />
  </g>
  <g
     style="display:inline;opacity:0.64800002"
     transform="translate(0,-130.31247)"
     id="g2263"
     inkscape:groupmode="layer"
     inkscape:label="Background"
     sodipodi:insensitive="true">
    <rect
       y="130.31247"
       x="-3.907985e-14"
       height="166.6875"
       width="317.5"
       id="rect2241"
       style="opacity:1;vector-effect:none;fill:#50a49a;fill-opacity:1;stroke:none;stroke-width:0.22758098;stroke-linecap:butt;stroke-linejoin:miter;stroke-miterlimit:4;stroke-dasharray:none;stroke-dashoffset:0;stroke-opacity:1" />
  </g>
  <g
     inkscape:groupmode="layer"
     id="layer3"
     inkscape:label="Trademark"
     style="display:inline;opacity:0.15700001"
     sodipodi:insensitive="true">
    <g
       style="display:inline;opacity:1;enable-background:new"
       id="g2130"
       transform="matrix(1.7468465,0,0,1.7468465,120.8017,-26.462436)"
       mask="url(#mask2353)">
      <g
         style="display:inline"
         transform="matrix(0.89880238,0,0,0.89880238,2.9988226,78.669018)"
         id="layer1-4"
         inkscape:label="Layer 1">
        <g
           clip-path="url(#clipPath4670-0)"
           id="g4664">
          <rect
             style="fill:#50a49a;fill-opacity:1;fill-rule:evenodd;stroke-width:0.7055546"
             id="rect10"
             width="135.46666"
             height="135.46666"
             x="2.2705078e-07"
             y="-84.666664" />
          <g
             id="g3803"
             transform="matrix(1.5625535,0,0,1.5625535,14.552934,-69.047414)"
             style="fill:#ffffff">
            <g
               transform="translate(8.6342884,8.3363622)"
               style="font-style:normal;font-weight:normal;font-size:14.2809px;line-height:1.25;font-family:sans-serif;fill:#ffffff;fill-opacity:1;stroke:none;stroke-width:0.35702401"
               id="text18"
               aria-label="fəˈnɛtɪks">
              <path
                 inkscape:connector-curvature="0"
                 id="path61"
                 style="font-style:normal;font-variant:normal;font-weight:normal;font-stretch:normal;font-family:'Arial Narrow';-inkscape-font-specification:'Arial Narrow';fill:#ffffff;stroke-width:0.35702401"
                 d="M 2.7165185,47.30352 V 40.874326 H 1.803043 v -0.976233 h 0.9134755 v -0.78796 q 0,-0.871637 0.1813005,-1.303969 0.1813005,-0.439305 0.5508746,-0.669417 0.3765471,-0.230112 0.9413679,-0.230112 0.439305,0 0.9622872,0.125515 l -0.1534081,1.094776 q -0.3207624,-0.06973 -0.6066593,-0.06973 -0.4602244,0 -0.6624441,0.244059 -0.1952467,0.237085 -0.1952467,0.913475 v 0.683364 h 1.1854263 v 0.976233 H 3.7345905 v 6.429194 z" />
              <path
                 inkscape:connector-curvature="0"
                 id="path63"
                 style="font-style:normal;font-variant:normal;font-weight:normal;font-stretch:normal;font-family:'Arial Narrow';-inkscape-font-specification:'Arial Narrow';fill:#ffffff;stroke-width:0.35702401"
                 d="m 12.74383,43.328856 q 0,1.826951 -0.96926,2.956592 -1.025045,1.199373 -2.8171307,1.199373 -1.6177582,0 -2.475449,-0.969261 -0.8088791,-0.920448 -0.8088791,-2.566099 v -0.711256 h 5.7388578 q 0,-1.387646 -0.808879,-2.126794 -0.7321752,-0.669417 -1.95944,-0.669417 -0.655471,0 -1.4504039,0.258005 -0.8437446,0.278923 -1.2969958,0.683363 h -0.069731 v -1.429485 q 1.5550004,-0.655471 2.8031845,-0.655471 1.9454932,0 3.0263232,1.045965 1.087803,1.045964 1.087803,2.984485 z m -1.331861,0.913475 H 6.9491877 q 0.013946,2.16166 2.0779825,2.16166 0.9971528,0 1.6456508,-0.58574 0.648498,-0.58574 0.739148,-1.57592 z" />
              <path
                 inkscape:connector-curvature="0"
                 id="path65"
                 style="font-style:normal;font-variant:normal;font-weight:normal;font-stretch:normal;font-family:'Arial Narrow';-inkscape-font-specification:'Arial Narrow';fill:#ffffff;stroke-width:0.35702401"
                 d="m 16.174593,39.39603 h -0.718229 v -2.315068 h 0.718229 z" />
              <path
                 inkscape:connector-curvature="0"
                 id="path67"
                 style="font-style:normal;font-variant:normal;font-weight:normal;font-stretch:normal;font-family:'Arial Narrow';-inkscape-font-specification:'Arial Narrow';fill:#ffffff;stroke-width:0.35702401"
                 d="m 18.963831,47.30352 v -7.405427 h 0.927421 v 1.052937 q 0.334709,-0.613632 0.815853,-0.913476 0.488116,-0.306816 1.115695,-0.306816 0.488117,0 0.899529,0.195247 0.418386,0.188274 0.669417,0.502063 0.258005,0.306816 0.383521,0.801906 0.125515,0.49509 0.125515,1.520135 V 47.30352 H 22.868764 V 42.7989 q 0,-0.815852 -0.139462,-1.192399 -0.139462,-0.376547 -0.439305,-0.578767 -0.29287,-0.209193 -0.683363,-0.209193 -0.739148,0 -1.178453,0.550875 -0.439305,0.550874 -0.439305,1.889709 v 4.044395 z" />
              <path
                 inkscape:connector-curvature="0"
                 id="path69"
                 style="font-style:normal;font-variant:normal;font-weight:normal;font-stretch:normal;font-family:'Arial Narrow';-inkscape-font-specification:'Arial Narrow';fill:#ffffff;stroke-width:0.35702401"
                 d="m 30.936638,45.218565 q -0.40444,2.252309 -2.935674,2.252309 -1.164507,0 -1.903655,-0.522982 -0.850718,-0.599686 -0.850718,-1.715381 0,-1.262131 1.115696,-1.861817 -0.87861,-0.536928 -0.87861,-1.443431 0,-1.025045 0.774013,-1.631704 0.711256,-0.564821 1.75722,-0.564821 2.133768,0 2.691615,2.084956 l -1.192399,0.195247 q -0.425359,-1.248185 -1.485269,-1.248185 -0.529956,0 -0.871637,0.299844 -0.341682,0.29287 -0.341682,0.815852 0,0.362601 0.230112,0.662444 0.230112,0.299843 0.578767,0.369574 0.29287,0.05579 1.08083,0.06276 v 0.983206 q -0.223139,-0.007 -0.285897,-0.007 -0.711256,0 -0.906502,0.03487 -0.453252,0.09065 -0.746122,0.446278 -0.264977,0.320762 -0.264977,0.753094 0,0.578767 0.460224,0.941368 0.418386,0.334709 1.018072,0.334709 0.683363,0 1.164507,-0.418386 0.460224,-0.397467 0.613632,-1.073857 z" />
              <path
                 inkscape:connector-curvature="0"
                 id="path71"
                 style="font-style:normal;font-variant:normal;font-weight:normal;font-stretch:normal;font-family:'Arial Narrow';-inkscape-font-specification:'Arial Narrow';fill:#ffffff;stroke-width:0.35702401"
                 d="m 34.339507,46.180852 0.139462,1.108722 q -0.425359,0.11157 -0.767041,0.11157 -0.536928,0 -0.864664,-0.209193 -0.327735,-0.216166 -0.453251,-0.58574 -0.118543,-0.369574 -0.118543,-1.471324 v -4.260561 h -0.753094 v -0.976233 h 0.753094 v -1.833925 l 1.025046,-0.753094 v 2.587019 h 1.038991 v 0.976233 h -1.038991 v 4.330292 q 0,0.599687 0.09065,0.774014 0.132489,0.251031 0.49509,0.251031 0.174327,0 0.453251,-0.04881 z" />
              <path
                 inkscape:connector-curvature="0"
                 id="path73"
                 style="font-style:normal;font-variant:normal;font-weight:normal;font-stretch:normal;font-family:'Arial Narrow';-inkscape-font-specification:'Arial Narrow';fill:#ffffff;stroke-width:0.35702401"
                 d="m 36.766146,47.30352 h -1.255157 v -7.405427 h 1.255157 z" />
              <path
                 inkscape:connector-curvature="0"
                 id="path75"
                 style="font-style:normal;font-variant:normal;font-weight:normal;font-stretch:normal;font-family:'Arial Narrow';-inkscape-font-specification:'Arial Narrow';fill:#ffffff;stroke-width:0.35702401"
                 d="M 38.516391,47.30352 V 37.080962 h 1.025045 v 5.829508 l 2.440583,-3.012377 h 1.331862 l -2.322041,2.747399 2.552153,4.658028 h -1.262131 l -2.015224,-3.786391 -0.725202,0.850718 v 2.935673 z" />
              <path
                 inkscape:connector-curvature="0"
                 id="path77"
                 style="font-style:normal;font-variant:normal;font-weight:normal;font-stretch:normal;font-family:'Arial Narrow';-inkscape-font-specification:'Arial Narrow';fill:#ffffff;stroke-width:0.35702401"
                 d="m 43.955408,45.093049 1.018072,-0.195247 q 0.09065,0.780987 0.49509,1.164507 0.404439,0.376547 1.073856,0.376547 0.669417,0 1.032018,-0.327735 0.369575,-0.334709 0.369575,-0.843745 0,-0.439305 -0.31379,-0.683363 -0.216166,-0.167354 -1.045964,-0.418386 -1.199373,-0.369574 -1.603812,-0.627578 -0.40444,-0.258005 -0.627579,-0.690337 -0.223139,-0.432332 -0.223139,-0.983206 0,-0.948341 0.60666,-1.541055 0.606659,-0.592713 1.680516,-0.592713 0.67639,0 1.185426,0.244059 0.516009,0.244058 0.78796,0.655471 0.27195,0.411412 0.376547,1.178453 l -1.004126,0.167354 q -0.139462,-1.213319 -1.317915,-1.213319 -0.669417,0 -0.997153,0.271951 -0.327735,0.264978 -0.327735,0.683364 0,0.411412 0.313789,0.648497 0.188274,0.139462 1.115695,0.446279 1.276077,0.411412 1.652624,0.655471 0.376547,0.237085 0.58574,0.655471 0.209193,0.411412 0.209193,0.983206 0,1.059911 -0.67639,1.715382 -0.669417,0.655471 -1.833924,0.655471 -2.182579,0 -2.531234,-2.384799 z" />
            </g>
            <g
               transform="translate(8.6342884,8.3363622)"
               style="font-style:normal;font-weight:normal;font-size:44.17900085px;line-height:1.25;font-family:sans-serif;fill:#ffffff;fill-opacity:1;stroke:none;stroke-width:1.10448003"
               id="text931"
               aria-label="RP">
              <path
                 inkscape:connector-curvature="0"
                 id="path51"
                 style="font-style:normal;font-variant:normal;font-weight:normal;font-stretch:normal;font-family:'Bodoni 72';-inkscape-font-specification:'Bodoni 72, ';fill:#ffffff;stroke-width:1.10448003"
                 d="m 27.169582,31.925229 q 0,1.855518 -3.09253,1.855518 -3.445962,0 -5.389838,-2.871635 -0.839401,-1.237012 -1.104475,-2.385666 -0.220895,-1.148654 -0.706864,-5.831628 -0.265074,-2.827456 -1.811339,-3.97611 -1.546265,-1.192833 -5.036406,-1.281191 v 13.916385 q 0,0.88358 1.413728,1.104475 0.397611,0.04418 2.032234,0.08836 0.574327,0 0.574327,0.353432 0,0.397611 -0.751043,0.397611 H 12.767228 Q 12.369617,33.2506 8.9236546,33.2506 q -0.662685,0 -2.253129,0.04418 -1.5462651,0 -2.0322341,0 h -1.722981 q -0.971938,0 -0.971938,-0.397611 0,-0.309253 1.281191,-0.353432 2.076413,-0.04418 2.253129,-0.530148 0.176716,-0.220895 0.176716,-1.722981 V 5.9037974 q 0,-1.7671601 -0.397611,-2.1205921 -0.353432,-0.353432 -2.253129,-0.397611 -1.104475,0 -1.104475,-0.397611 0,-0.44179 0.706864,-0.44179 0.132537,0 0.397611,0.044179 l 5.8758071,0.132537 q 0.88358,0 2.4740244,-0.044179 1.76716,-0.088358 2.474024,-0.088358 4.108647,0 6.494313,1.8555181 2.429845,1.811339 2.429845,4.948048 0,3.0925306 -2.474024,5.1247646 -2.474024,1.988055 -6.715208,2.341487 -0.397611,0.04418 -0.44179,0.132537 0,0.176716 0.44179,0.176716 4.638795,0.795222 6.361776,3.269246 1.76716,2.429845 2.341487,8.8358 0.353432,3.622678 2.474024,3.622678 0.662685,0 0.662685,-0.265074 0,-0.04418 -0.04418,-0.08836 -0.220895,-0.485969 -0.220895,-0.795222 0,-0.927759 0.971938,-0.927759 1.060296,0 1.060296,1.104475 z M 18.024529,9.7915495 q 0,-6.3175972 -5.478196,-6.3175972 -1.457907,0 -1.988055,0.397611 -0.530148,0.397611 -0.530148,1.4137281 V 16.506758 q 4.241184,0.04418 6.096702,-1.546265 1.899697,-1.590444 1.899697,-5.1689435 z" />
              <path
                 inkscape:connector-curvature="0"
                 id="path53"
                 style="font-style:normal;font-variant:normal;font-weight:normal;font-stretch:normal;font-family:'Bodoni 72';-inkscape-font-specification:'Bodoni 72, ';fill:#ffffff;stroke-width:1.10448003"
                 d="m 48.900818,9.9240865 q 0,4.2853635 -3.666857,6.6710295 -2.297308,1.502086 -5.831629,1.502086 -1.502086,0 -3.401783,-0.309253 v 12.546836 q 0,1.016117 0.08836,1.281191 0.220895,0.618506 0.971938,0.751043 1.281191,0.176716 2.474024,0.176716 0.485969,0 0.485969,0.309253 0,0.44179 -0.618506,0.44179 -0.265074,0 -0.44179,-0.04418 -2.429845,0.04418 -9.145053,0.04418 h -0.574327 q -1.32537,0 -1.32537,-0.44179 0,-0.309253 0.927759,-0.309253 2.076413,0 2.385666,-0.397611 0.353432,-0.176716 0.397611,-0.88358 V 5.1969334 q 0,-1.3695491 -0.751043,-1.6788021 -0.44179,-0.176716 -1.546265,-0.176716 h -0.44179 q -0.132537,0.044179 -0.309253,0.044179 -0.662685,0 -0.662685,-0.397611 0,-0.44179 1.237012,-0.44179 h 9.71938 q 5.036407,0 7.377894,1.76716 2.65074,1.9880551 2.65074,5.6107332 z m -4.638795,0.088358 q 0,-6.6268042 -5.566555,-6.6268042 -1.855518,0 -2.429845,0.618506 -0.265074,0.265074 -0.265074,1.3695491 V 17.125264 q 0.353432,0.04418 0.795222,0.04418 2.915814,0 4.948048,-1.281191 2.518204,-1.590444 2.518204,-5.875809 z" />
            </g>
            <g
               transform="translate(8.6342884,8.3363622)"
               style="font-style:normal;font-weight:normal;font-size:8.76957989px;line-height:1.25;font-family:sans-serif;fill:#ffffff;fill-opacity:1;stroke:none;stroke-width:0.219239"
               id="text935"
               aria-label="of">
              <path
                 inkscape:connector-curvature="0"
                 id="path56"
                 style="font-style:normal;font-variant:normal;font-weight:normal;font-stretch:normal;font-family:'Bodoni 72';-inkscape-font-specification:'Bodoni 72, ';fill:#ffffff;stroke-width:0.219239"
                 d="m 26.965848,26.341246 q 0,0.85065 -0.517405,1.429442 -0.517406,0.570022 -1.289129,0.570022 -0.798031,0 -1.332976,-0.570022 -0.534944,-0.578792 -0.534944,-1.429442 0,-0.876958 0.517405,-1.45575 0.526175,-0.578792 1.306668,-0.578792 0.789262,0 1.315437,0.587562 0.534944,0.578792 0.534944,1.44698 z m -0.798032,-0.0088 q 0,-0.964654 -0.298166,-1.499598 -0.219239,-0.394632 -0.736644,-0.394632 -0.491097,0 -0.771723,0.508636 -0.271857,0.499866 -0.271857,1.394363 0,0.885728 0.289396,1.385594 0.298166,0.491096 0.82434,0.491096 0.403401,0 0.596332,-0.306935 0.368322,-0.578792 0.368322,-1.578524 z" />
              <path
                 inkscape:connector-curvature="0"
                 id="path58"
                 style="font-style:normal;font-variant:normal;font-weight:normal;font-stretch:normal;font-family:'Bodoni 72';-inkscape-font-specification:'Bodoni 72, ';fill:#ffffff;stroke-width:0.219239"
                 d="m 30.398864,22.71941 q 0,0.184161 -0.114004,0.306935 -0.105235,0.114005 -0.280627,0.114005 -0.166622,0 -0.280626,-0.105235 -0.114005,-0.105235 -0.114005,-0.263088 0,-0.131543 0.114005,-0.306935 0.02631,-0.04385 0.02631,-0.07893 0,-0.201701 -0.289396,-0.201701 -0.491096,0 -0.648949,0.63141 -0.07893,0.333244 -0.07893,1.166354 v 0.42971 h 0.578792 q 0.175392,0 0.175392,0.07893 0,0.07893 -0.228009,0.07893 h -0.526175 v 3.428906 q 0,0.122774 0.245548,0.122774 0.377092,-0.0088 0.412171,0.03508 0.0088,0.0088 0.0088,0.03508 0,0.06139 -0.105235,0.06139 -0.05262,0 -0.0877,-0.0088 l -0.719106,-0.0088 -0.955884,0.01754 q -0.157853,0 -0.157853,-0.06139 0,-0.07016 0.122774,-0.07016 0.438479,0 0.482327,-0.05262 0.01754,-0.01754 0.01754,-0.05262 l 0.0088,-0.114004 V 24.56973 q -0.324474,0 -0.377092,-0.0088 -0.05262,-0.0088 -0.05262,-0.07016 0,-0.07893 0.157852,-0.07893 h 0.280627 q 0.03508,-1.113737 0.298165,-1.604833 0.403401,-0.754184 1.210202,-0.754184 0.385862,0 0.63141,0.184161 0.245548,0.184161 0.245548,0.482327 z" />
            </g>
          </g>
        </g>
      </g>
      <g
         style="opacity:1"
         inkscape:label="Layer 2"
         id="layer2" />
    </g>
  </g>
  <g
     inkscape:label="Emoji"
     inkscape:groupmode="layer"
     id="g4997"
     transform="translate(0,-130.31247)"
     style="display:inline;opacity:0.10700001"
     sodipodi:insensitive="true">
    <rect
       style="opacity:1;vector-effect:none;fill:#ffffff;fill-opacity:1;stroke:none;stroke-width:0.22758098;stroke-linecap:butt;stroke-linejoin:miter;stroke-miterlimit:4;stroke-dasharray:none;stroke-dashoffset:0;stroke-opacity:1"
       id="rect4995"
       width="317.5"
       height="166.6875"
       x="-3.907985e-14"
       y="130.31247"
       clip-path="url(#clipPath7530)" />
  </g>
  <g
     inkscape:label="Texts"
     inkscape:groupmode="layer"
     id="layer1"
     transform="translate(0,-130.31247)"
     style="display:inline;opacity:1">
    <text
       xml:space="preserve"
       style="font-style:normal;font-weight:normal;font-size:27.54086876px;line-height:1.25;font-family:sans-serif;letter-spacing:0px;word-spacing:0px;fill:#000000;fill-opacity:1;stroke:none;stroke-width:1.32291663;stroke-linecap:round;stroke-linejoin:round;stroke-miterlimit:4;stroke-dasharray:none;stroke-opacity:1;paint-order:stroke fill markers"
       x="24.739159"
       y="174.45198"
       id="text817"><tspan
         sodipodi:role="line"
         id="tspan815"
         x="24.739159"
         y="174.45198"
         style="font-style:normal;font-variant:normal;font-weight:normal;font-stretch:normal;font-size:28.22222137px;font-family:'Nimbus Roman';-inkscape-font-specification:'Nimbus Roman, ';fill:#000000;fill-opacity:1;stroke:none;stroke-width:1.32291663;stroke-linecap:round;stroke-linejoin:round;stroke-miterlimit:4;stroke-dasharray:none;stroke-opacity:1;paint-order:stroke fill markers">I love your accent...</tspan></text>
    <text
       xml:space="preserve"
       style="font-style:normal;font-weight:normal;font-size:22.28910255px;line-height:1.25;font-family:sans-serif;letter-spacing:0px;word-spacing:0px;fill:#000000;fill-opacity:1;stroke:none;stroke-width:1.4818542;stroke-linecap:round;stroke-linejoin:round;stroke-miterlimit:4;stroke-dasharray:none;stroke-opacity:1;paint-order:stroke fill markers"
       x="104.38612"
       y="198.85893"
       id="text821"><tspan
         sodipodi:role="line"
         id="tspan819"
         x="104.38612"
         y="198.85893"
         style="font-style:normal;font-variant:normal;font-weight:normal;font-stretch:normal;font-size:22.22500038px;font-family:'Nimbus Roman';-inkscape-font-specification:'Nimbus Roman, ';fill:#000000;fill-opacity:1;stroke:none;stroke-width:1.4818542;stroke-linecap:round;stroke-linejoin:round;stroke-miterlimit:4;stroke-dasharray:none;stroke-opacity:1;paint-order:stroke fill markers">Where are you from?</tspan></text>
    <text
       id="text1851"
       y="242.50697"
       x="25.475653"
       style="font-style:normal;font-weight:normal;font-size:27.54086876px;line-height:1.25;font-family:sans-serif;letter-spacing:0px;word-spacing:0px;fill:#000000;fill-opacity:1;stroke:none;stroke-width:0.68852168"
       xml:space="preserve"><tspan
         style="font-style:normal;font-variant:normal;font-weight:normal;font-stretch:normal;font-size:28.22222137px;font-family:'Nimbus Roman';-inkscape-font-specification:'Nimbus Roman, ';fill:#000000;stroke-width:0.68852168"
         y="242.50697"
         x="25.475653"
         id="tspan1849"
         sodipodi:role="line">/aɪ lʌv jʊɹ æksənt</tspan></text>
    <text
       id="text1855"
       y="266.7244"
       x="144.42319"
       style="font-style:normal;font-weight:normal;font-size:19.89846611px;line-height:1.25;font-family:sans-serif;letter-spacing:0px;word-spacing:0px;fill:#000000;fill-opacity:1;stroke:none;stroke-width:0.49746165"
       xml:space="preserve"><tspan
         style="font-style:normal;font-variant:normal;font-weight:normal;font-stretch:normal;font-size:22.22500038px;font-family:'Nimbus Roman';-inkscape-font-specification:'Nimbus Roman, ';fill:#000000;stroke-width:0.49746165"
         y="266.7244"
         x="144.42319"
         id="tspan1853"
         sodipodi:role="line">wɛɹ ɑːɹ juː fɹʌm/</tspan></text>
  </g>
</svg>
