<?xml version="1.0" encoding="UTF-8" standalone="no"?>
<svg
   xmlns:dc="http://purl.org/dc/elements/1.1/"
   xmlns:cc="http://creativecommons.org/ns#"
   xmlns:rdf="http://www.w3.org/1999/02/22-rdf-syntax-ns#"
   xmlns:svg="http://www.w3.org/2000/svg"
   xmlns="http://www.w3.org/2000/svg"
   xmlns:sodipodi="http://sodipodi.sourceforge.net/DTD/sodipodi-0.dtd"
   xmlns:inkscape="http://www.inkscape.org/namespaces/inkscape"
   width="1200"
   height="630"
   viewBox="0 0 317.49999 166.6875"
   version="1.1"
   id="svg8"
   inkscape:version="1.0.1 (c497b03c, 2020-09-10)"
   sodipodi:docname="og-image-1200x630.svg"
   inkscape:export-filename="/Users/willianantunes/Development/git-personal/rave-of-phonetics/rave_of_phonetics/apps/core/static/core/img/og-image-1200x630.png"
   inkscape:export-xdpi="48"
   inkscape:export-ydpi="48">
  <defs
     id="defs2" />
  <sodipodi:namedview
     id="base"
     pagecolor="#ffffff"
     bordercolor="#666666"
     borderopacity="1.0"
     inkscape:pageopacity="0.0"
     inkscape:pageshadow="2"
     inkscape:zoom="0.53007525"
     inkscape:cx="656.35206"
     inkscape:cy="275.89657"
     inkscape:document-units="px"
     inkscape:current-layer="layer1"
     inkscape:document-rotation="0"
     showgrid="false"
     units="px"
     inkscape:window-width="1440"
     inkscape:window-height="855"
     inkscape:window-x="0"
     inkscape:window-y="23"
     inkscape:window-maximized="1" />
  <metadata
     id="metadata5">
    <rdf:RDF>
      <cc:Work
         rdf:about="">
        <dc:format>image/svg+xml</dc:format>
        <dc:type
           rdf:resource="http://purl.org/dc/dcmitype/StillImage" />
        <dc:title />
      </cc:Work>
    </rdf:RDF>
  </metadata>
  <g
     inkscape:label="Layer 1"
     inkscape:groupmode="layer"
     id="layer1">
    <rect
       style="fill:#50a49a;fill-opacity:1;fill-rule:evenodd;stroke-width:1.19818"
       id="rect10"
       width="317.5"
       height="166.6875"
       x="-2.4999999e-06"
       y="-1.3125e-06" />
    <text
       xml:space="preserve"
       style="font-style:normal;font-weight:normal;font-size:33.0012px;line-height:1.25;font-family:sans-serif;fill:#ffffff;fill-opacity:1;stroke:none;stroke-width:0.825033"
       x="49.594658"
       y="154.77217"
       id="text18"><tspan
         sodipodi:role="line"
         x="49.594658"
         y="154.77217"
         style="font-style:normal;font-variant:normal;font-weight:normal;font-stretch:normal;font-family:'Arial Narrow';-inkscape-font-specification:'Arial Narrow';fill:#ffffff;stroke-width:0.825033"
         id="tspan24">ˈreɪv əv fəˈnɛtɪks</tspan></text>
    <text
       xml:space="preserve"
       style="font-style:normal;font-weight:normal;font-size:46.284px;line-height:1.25;font-family:sans-serif;fill:#ffffff;fill-opacity:1;stroke:none;stroke-width:1.15711"
       x="6.1440554"
       y="42.237629"
       id="text963"><tspan
         sodipodi:role="line"
         id="tspan961"
         x="6.1440554"
         y="42.237629"
         style="font-style:normal;font-variant:normal;font-weight:normal;font-stretch:normal;font-family:'Bodoni 72';-inkscape-font-specification:'Bodoni 72, ';fill:#ffffff;stroke-width:1.15711">Rave of Phonetics</tspan></text>
    <text
       xml:space="preserve"
       style="font-style:normal;font-weight:normal;font-size:14.1111px;line-height:1.25;font-family:sans-serif;opacity:1;fill:#ffffff;fill-opacity:1;stroke:none;stroke-width:1.17853"
       x="7.800138"
       y="80.624908"
       id="text983"><tspan
         sodipodi:role="line"
         x="7.800138"
         y="80.624908"
         style="font-style:normal;font-variant:normal;font-weight:normal;font-stretch:normal;font-size:14.1111px;font-family:'Bodoni 72';-inkscape-font-specification:'Bodoni 72, ';fill:#ffffff;stroke-width:1.17853"
         id="tspan985"><tspan
           dx="0 0 0 0 0 0.35927841"
           id="tspan987"
           style="font-style:normal;font-variant:normal;font-weight:normal;font-stretch:normal;font-size:14.1111px;font-family:'Bodoni 72';-inkscape-font-specification:'Bodoni 72, ';fill:#ffffff;stroke-width:1.17853">Did you know that TO, TWO and TOO </tspan></tspan><tspan
         sodipodi:role="line"
         x="7.800138"
         y="98.385536"
         style="font-style:normal;font-variant:normal;font-weight:normal;font-stretch:normal;font-size:14.1111px;font-family:'Bodoni 72';-inkscape-font-specification:'Bodoni 72, ';fill:#ffffff;stroke-width:1.17853"
         dx="0 0 0 0 0 0 0 0 0 0 0 0 0 0 0 0 0 0 0 0 0 0 0 0 0 0.35927841"
         id="tspan989">are spoken the same?</tspan></text>
    <g
       id="g1095"
       transform="translate(7.1855682,8.6505527)">
      <path
         fill="none"
         stroke="#000000"
         stroke-linecap="round"
         stroke-linejoin="round"
         stroke-width="1.98027"
         d="m 255.38053,82.139127 c 2.37633,-0.693095 11.78261,0.495068 13.96091,2.079284"
         id="path1051"
         style="stroke:#ffffff" />
      <path
         fill="none"
         stroke="#000000"
         stroke-linecap="round"
         stroke-linejoin="round"
         stroke-width="1.98027"
         d="m 248.94465,60.356148 c 1.28718,-0.891122 2.77238,-1.287176 4.3566,-1.089149 1.58422,0 3.06942,0.594082 4.15857,1.683231"
         id="path1053"
         style="stroke:#ffffff" />
      <path
         fill="none"
         stroke="#000000"
         stroke-linecap="round"
         stroke-linejoin="round"
         stroke-width="1.98027"
         d="m 277.36154,64.31669 c -2.67337,-0.693095 -5.44575,-0.792108 -8.11911,-0.297041"
         id="path1055"
         style="stroke:#ffffff" />
      <path
         fill="none"
         stroke="#000000"
         stroke-linecap="round"
         stroke-linejoin="round"
         stroke-width="1.98027"
         d="m 268.35131,95.902009 c 12.17866,-3.267447 19.30764,-15.743153 16.04019,-27.921818 -3.26745,-12.178666 -15.74315,-19.30764 -27.92182,-16.040194 -9.90135,2.673366 -16.8323,11.683598 -16.8323,21.981006 0,4.554623 1.38619,9.109246 3.96054,12.87176"
         id="path1057"
         style="stroke:#ffffff" />
      <path
         d="m 257.45982,68.475258 c 0,1.683231 -1.28718,2.970407 -2.97041,2.970407 -1.68323,0 -2.97041,-1.287176 -2.97041,-2.970407 0,-1.68323 1.28718,-2.970406 2.97041,-2.970406 1.68323,0 2.97041,1.287176 2.97041,2.970406"
         id="path1059"
         style="fill:#ffffff;stroke-width:0.990135" />
      <path
         d="m 274.29212,71.445665 c 0,1.68323 -1.28718,2.970406 -2.97041,2.970406 -1.68323,0 -2.9704,-1.287176 -2.9704,-2.970406 0,-1.683231 1.28717,-2.970407 2.9704,-2.970407 1.68323,0 2.97041,1.287176 2.97041,2.970407"
         id="path1061"
         style="fill:#ffffff;stroke-width:0.990135" />
      <path
         fill="none"
         stroke="#000000"
         stroke-linecap="round"
         stroke-linejoin="round"
         stroke-width="1.98027"
         d="m 246.27129,94.218779 c -0.99014,1.584216 -1.18817,3.663501 -0.49507,5.445744 1.08915,3.267447 3.96054,5.148707 7.12897,4.158567 l 4.85167,-1.38619 0.99013,-0.29704 c 0.79211,-0.19803 1.28718,-1.08915 1.08915,-1.78224 v 0 c -0.19803,-0.49507 -0.59408,-0.891124 -1.18816,-0.990137 l 1.18816,-0.297041 c 0.79211,-0.198027 1.28718,-1.089149 1.08915,-1.782244 -0.19803,-0.495067 -0.59408,-0.990135 -1.18816,-1.089149 l 1.18816,-0.396054 c 0.79211,-0.198027 1.28718,-1.089149 1.08915,-1.782243 -0.099,-0.495068 -0.49507,-0.891122 -0.99014,-0.990136 l 6.33687,-1.881257 c 0.79211,-0.198027 1.28718,-1.089149 1.08915,-1.782244 -0.19803,-0.693095 -1.08915,-1.287176 -1.78224,-1.089149 v 0 l -10.09938,2.970406 -5.0497,1.485204 0.59409,-7.723057 c 0.099,-0.891121 -1.48521,-1.188162 -2.07929,0.198028 z"
         id="path1063"
         style="stroke:#ffffff" />
    </g>
  </g>
</svg>
